<svg data-v-423bf9ae="" xmlns="http://www.w3.org/2000/svg" viewBox="0 0 178.83834158527816 163" class="iconAbove"><!----><!----><!----><g data-v-423bf9ae="" id="75b28470-570a-4eb2-ab6d-b5a848783bf0" fill="#ffffff" transform="matrix(5.808325309113267,0,0,5.808325309113267,-4.130004072067095e-7,85.74927151998887)"><path d="M4.91 6.55L4.42 6.55L4.42 5.89C4.42 4.31 3.78 3.47 2.45 3.47C1.15 3.47 0.49 4.31 0.49 5.89L0.49 10.35C0.49 11.96 1.16 12.80 2.45 12.80C3.75 12.80 4.42 11.96 4.42 10.35L4.42 8.74L1.99 8.74L1.99 8.25L4.91 8.25L4.91 10.35C4.91 11.27 4.72 11.98 4.31 12.47C4.02 12.85 3.46 13.29 2.45 13.29C1.44 13.29 0.90 12.85 0.60 12.47C0.20 11.98 0 11.27 0 10.35L0 5.89C0 4.06 0.83 2.97 2.45 2.97C4.09 2.97 4.91 4.06 4.91 5.89ZM4.09 6.55L3.58 6.55L3.58 5.89C3.58 5.15 3.44 4.76 3.23 4.54C3.01 4.33 2.73 4.30 2.45 4.30C2.17 4.30 1.89 4.33 1.68 4.54C1.46 4.76 1.32 5.15 1.32 5.89L1.32 10.35C1.32 11.17 1.50 11.56 1.74 11.76C1.97 11.96 2.24 11.97 2.45 11.97C2.66 11.97 2.94 11.96 3.18 11.76C3.40 11.56 3.58 11.17 3.58 10.35L3.58 9.56L1.99 9.56L1.99 9.07L4.09 9.07L4.09 10.35C4.09 11.09 3.95 11.62 3.67 11.96C3.42 12.29 3.01 12.46 2.45 12.46C1.90 12.46 1.50 12.29 1.25 11.96C0.97 11.62 0.83 11.09 0.83 10.35L0.83 5.89C0.83 4.44 1.37 3.79 2.45 3.79C3.53 3.79 4.09 4.44 4.09 5.89ZM8.32 2.98L9.37 2.98L11.76 13.30L11.24 13.30L8.99 3.57L8.68 3.57L6.43 13.30L5.92 13.30ZM8.83 4.38L10.04 9.60L7.62 9.60ZM8.83 6.58L8.25 9.10L9.42 9.10ZM7.28 13.30L6.76 13.30L7.55 9.93L10.12 9.93L10.91 13.30L10.40 13.30L9.73 10.43L7.94 10.43ZM17.67 2.97L18.83 2.97L18.83 13.29L18.34 13.29L18.34 3.47L18.05 3.47L15.60 12.03L13.13 3.47L12.84 3.47L12.84 13.29L12.35 13.29L12.35 2.97L13.51 2.97L15.60 10.23ZM13.66 13.29L13.17 13.29L13.17 4.80L15.60 13.23L18.00 4.80L18.00 13.29L17.51 13.29L17.51 8.34L16.09 13.29L15.09 13.29L13.66 8.34ZM20.37 3.49L20.37 12.81L24.15 12.81L24.15 13.30L19.88 13.30L19.88 2.98L24.15 2.98L24.15 3.49ZM20.71 3.81L24.15 3.81L24.15 4.31L21.20 4.31L21.20 7.48L24.15 7.48L24.15 7.98L20.71 7.98ZM20.71 8.30L24.15 8.30L24.15 8.81L21.20 8.81L21.20 11.98L24.15 11.98L24.15 12.47L20.71 12.47ZM30.79 3.49L24.95 3.49L24.95 2.98L30.79 2.98ZM24.95 3.81L27.71 3.81L27.71 13.30L27.20 13.30L27.20 4.31L24.95 4.31ZM28.03 13.30L28.03 3.81L30.79 3.81L30.79 4.31L28.53 4.31L28.53 13.30Z"></path></g><!----><g data-v-423bf9ae="" id="9fe62d3a-a53e-4943-9cfd-a99d8ad2f00e" transform="matrix(1.1579137277474352,0,0,1.1579137277474352,21.800481496717296,-0.001737051142882251)" stroke="none" fill="#E85921"><path d="M115.256 68.019c-3.281 8.032-8.976 9.718-13.175 9.718-14.91 0-24.784-9.649-31.993-16.694-3.978-3.885-7.734-7.557-10.382-7.557h-3.358c-2.499 0-6.112 3.654-9.941 7.523-6.984 7.059-16.548 16.728-31.065 16.728-4.017 0-9.482-1.622-12.71-9.346-6.941-16.613 1.24-55.945 9.201-63.837C14.874 1.539 19.932.011 26.869.011c10.851 0 22.982 3.647 23.493 3.802a2.982 2.982 0 0 1 2.09 2.416c.063.383.307 1.35.795 2.242h8.777l2.08-3.367a2.995 2.995 0 0 1 1.707-1.299C66.34 3.65 78.885.011 90.091.011c7.135 0 12.332 1.517 15.447 4.51 7.234 6.95 16.954 45.788 9.718 63.498zM101.362 8.792c-1.929-1.854-5.827-2.833-11.271-2.833-8.517 0-18.269 2.393-21.487 3.25l-2.34 3.789a3.003 3.003 0 0 1-2.558 1.421H51.714a3.012 3.012 0 0 1-2.207-.96c-1.322-1.424-2.082-3.12-2.506-4.409-3.55-.954-12.372-3.091-20.132-3.091-5.213 0-8.945.968-10.794 2.8-5.199 5.156-14.406 41.782-7.9 57.355 2.124 5.086 5.109 5.675 7.167 5.675 11.998 0 20.195-8.287 26.782-14.946 4.94-4.993 9.205-9.305 14.224-9.305h3.358c5.107 0 9.503 4.296 14.593 9.269 6.832 6.675 15.333 14.982 27.782 14.982 2.217 0 5.416-.623 7.615-6.004 6.564-16.067-2.953-51.824-8.334-56.993zm-3.865 24.934h-7.316v7.253c0 1.643-1.344 2.974-3 2.974s-3-1.331-3-2.974v-7.253h-7.314c-1.656 0-3-1.331-3-2.974 0-1.643 1.344-2.974 3-2.974h7.314v-7.252c0-1.643 1.344-2.974 3-2.974s3 1.331 3 2.974v7.252h7.316c1.656 0 3 1.331 3 2.974 0 1.643-1.344 2.974-3 2.974zM32.041 46.785c-8.131 0-14.744-6.557-14.744-14.617 0-8.059 6.613-14.616 14.744-14.616 8.13 0 14.743 6.557 14.743 14.616 0 8.06-6.613 14.617-14.743 14.617zm0-23.285c-4.822 0-8.744 3.889-8.744 8.668 0 4.78 3.922 8.669 8.744 8.669 4.822 0 8.744-3.889 8.744-8.669 0-4.779-3.922-8.668-8.744-8.668z"></path></g><!----></svg>